<svg width="585" height="130" viewBox="0 0 585 130" fill="none" xmlns="http://www.w3.org/2000/svg">
<path d="M26.0127 113.846C27.6966 113.846 29.016 114.248 29.9711 115.053C30.9261 115.857 31.4036 116.963 31.4036 118.37C31.4036 119.777 30.9261 120.883 29.9711 121.688C29.016 122.479 27.6966 122.875 26.0127 122.875H22.4691V127.041H21.0742V113.846H26.0127ZM25.975 121.65C27.2819 121.65 28.2809 121.367 28.9721 120.802C29.6632 120.224 30.0088 119.413 30.0088 118.37C30.0088 117.302 29.6632 116.485 28.9721 115.92C28.2809 115.342 27.2819 115.053 25.975 115.053H22.4691V121.65H25.975Z" fill="white"/>
<path d="M45.827 118.559C47.3852 118.559 48.5727 118.91 49.3895 119.614C50.2188 120.318 50.6335 121.348 50.6335 122.705C50.6335 124.125 50.1937 125.206 49.3141 125.947C48.447 126.676 47.1904 127.041 45.5442 127.041H40.3041V113.846H41.6801V118.559H45.827ZM45.5065 125.929C46.7254 125.929 47.6491 125.658 48.2774 125.118C48.9182 124.578 49.2387 123.78 49.2387 122.724C49.2387 120.701 47.9946 119.689 45.5065 119.689H41.6801V125.929H45.5065ZM52.9143 113.846H54.2903V127.041H52.9143V113.846Z" fill="white"/>
<path d="M64.7618 113.846H74.4126V115.034H66.1378V119.35H70.4542C72.0124 119.35 73.1937 119.671 73.9979 120.312C74.8147 120.952 75.2231 121.882 75.2231 123.101C75.2231 124.37 74.7833 125.344 73.9037 126.023C73.0366 126.701 71.7863 127.041 70.1527 127.041H64.7618V113.846ZM70.1338 125.929C71.3527 125.929 72.2701 125.696 72.8858 125.231C73.5141 124.766 73.8283 124.075 73.8283 123.158C73.8283 122.253 73.5204 121.581 72.9046 121.141C72.3015 120.689 71.3779 120.462 70.1338 120.462H66.1378V125.929H70.1338Z" fill="white"/>
<path d="M92.8963 123.516H85.5451L83.9618 127.041H82.5104L88.5422 113.846H89.9182L95.9499 127.041H94.4797L92.8963 123.516ZM92.3874 122.385L89.2207 115.298L86.0541 122.385H92.3874Z" fill="white"/>
<path d="M153.528 113.846V127.041H152.19V116.485L147.006 125.363H146.346L141.163 116.542V127.041H139.825V113.846H140.974L146.704 123.629L152.378 113.846H153.528Z" fill="white"/>
<path d="M169.793 127.154C168.486 127.154 167.298 126.865 166.23 126.287C165.175 125.696 164.345 124.892 163.742 123.874C163.152 122.856 162.856 121.713 162.856 120.443C162.856 119.174 163.152 118.031 163.742 117.013C164.345 115.995 165.175 115.197 166.23 114.619C167.298 114.028 168.486 113.733 169.793 113.733C171.1 113.733 172.275 114.022 173.318 114.6C174.373 115.178 175.202 115.982 175.806 117.013C176.409 118.031 176.71 119.174 176.71 120.443C176.71 121.713 176.409 122.862 175.806 123.893C175.202 124.911 174.373 125.709 173.318 126.287C172.275 126.865 171.1 127.154 169.793 127.154ZM169.793 125.91C170.836 125.91 171.778 125.677 172.62 125.212C173.462 124.735 174.122 124.081 174.599 123.252C175.077 122.41 175.316 121.474 175.316 120.443C175.316 119.413 175.077 118.483 174.599 117.654C174.122 116.812 173.462 116.158 172.62 115.693C171.778 115.216 170.836 114.977 169.793 114.977C168.75 114.977 167.801 115.216 166.947 115.693C166.105 116.158 165.439 116.812 164.949 117.654C164.471 118.483 164.232 119.413 164.232 120.443C164.232 121.474 164.471 122.41 164.949 123.252C165.439 124.081 166.105 124.735 166.947 125.212C167.801 125.677 168.75 125.91 169.793 125.91Z" fill="white"/>
<path d="M191.009 113.846C192.693 113.846 194.013 114.248 194.968 115.053C195.923 115.857 196.4 116.963 196.4 118.37C196.4 119.777 195.923 120.883 194.968 121.688C194.013 122.479 192.693 122.875 191.009 122.875H187.466V127.041H186.071V113.846H191.009ZM190.972 121.65C192.278 121.65 193.277 121.367 193.969 120.802C194.66 120.224 195.005 119.413 195.005 118.37C195.005 117.302 194.66 116.485 193.969 115.92C193.277 115.342 192.278 115.053 190.972 115.053H187.466V121.65H190.972Z" fill="white"/>
<path d="M214.631 125.834V127.041H205.301V113.846H214.348V115.053H206.695V119.746H213.519V120.934H206.695V125.834H214.631Z" fill="white"/>
<path d="M234.86 113.846V127.041H233.484V115.053H225.133V127.041H223.757V113.846H234.86Z" fill="white"/>
<path d="M250.282 113.846C251.966 113.846 253.285 114.248 254.24 115.053C255.195 115.857 255.673 116.963 255.673 118.37C255.673 119.777 255.195 120.883 254.24 121.688C253.285 122.479 251.966 122.875 250.282 122.875H246.738V127.041H245.344V113.846H250.282ZM250.244 121.65C251.551 121.65 252.55 121.367 253.241 120.802C253.932 120.224 254.278 119.413 254.278 118.37C254.278 117.302 253.932 116.485 253.241 115.92C252.55 115.342 251.551 115.053 250.244 115.053H246.738V121.65H250.244Z" fill="white"/>
<path d="M270.544 127.154C269.237 127.154 268.05 126.865 266.982 126.287C265.926 125.696 265.097 124.892 264.494 123.874C263.903 122.856 263.608 121.713 263.608 120.443C263.608 119.174 263.903 118.031 264.494 117.013C265.097 115.995 265.926 115.197 266.982 114.619C268.05 114.028 269.237 113.733 270.544 113.733C271.851 113.733 273.026 114.022 274.069 114.6C275.125 115.178 275.954 115.982 276.557 117.013C277.16 118.031 277.462 119.174 277.462 120.443C277.462 121.713 277.16 122.862 276.557 123.893C275.954 124.911 275.125 125.709 274.069 126.287C273.026 126.865 271.851 127.154 270.544 127.154ZM270.544 125.91C271.587 125.91 272.53 125.677 273.372 125.212C274.214 124.735 274.873 124.081 275.351 123.252C275.828 122.41 276.067 121.474 276.067 120.443C276.067 119.413 275.828 118.483 275.351 117.654C274.873 116.812 274.214 116.158 273.372 115.693C272.53 115.216 271.587 114.977 270.544 114.977C269.501 114.977 268.552 115.216 267.698 115.693C266.856 116.158 266.19 116.812 265.7 117.654C265.222 118.483 264.984 119.413 264.984 120.443C264.984 121.474 265.222 122.41 265.7 123.252C266.19 124.081 266.856 124.735 267.698 125.212C268.552 125.677 269.501 125.91 270.544 125.91Z" fill="white"/>
<path d="M298.574 125.834V130H297.273V127.041H285.757L285.738 130H284.437L284.456 125.834H285.116C285.983 125.784 286.586 125.099 286.925 123.78C287.265 122.448 287.472 120.563 287.547 118.125L287.698 113.846H296.595V125.834H298.574ZM288.791 118.257C288.728 120.268 288.571 121.926 288.32 123.233C288.081 124.527 287.673 125.395 287.095 125.834H295.219V115.053H288.904L288.791 118.257Z" fill="white"/>
<path d="M317.818 113.846L311.824 124.948C311.397 125.74 310.894 126.331 310.316 126.72C309.751 127.097 309.129 127.286 308.45 127.286C307.947 127.286 307.407 127.166 306.829 126.928L307.225 125.797C307.677 125.973 308.092 126.061 308.469 126.061C309.336 126.061 310.046 125.589 310.599 124.647L310.976 124.006L305.623 113.846H307.112L311.711 122.781L316.423 113.846H317.818Z" fill="white"/>
<path d="M330.391 120.99H327.375V127.041H326.018V113.846H327.375V119.765H330.391L334.859 113.846H336.367L331.466 120.255L336.649 127.041H335.047L330.391 120.99Z" fill="white"/>
<path d="M353.347 115.053H348.71V127.041H347.334V115.053H342.698V113.846H353.347V115.053Z" fill="white"/>
<path d="M367.35 118.559C368.908 118.559 370.096 118.91 370.913 119.614C371.742 120.318 372.157 121.348 372.157 122.705C372.157 124.125 371.717 125.206 370.837 125.947C369.97 126.676 368.714 127.041 367.068 127.041H361.827V113.846H363.203V118.559H367.35ZM367.03 125.929C368.249 125.929 369.172 125.658 369.801 125.118C370.442 124.578 370.762 123.78 370.762 122.724C370.762 120.701 369.518 119.69 367.03 119.69H363.203V125.929H367.03ZM374.438 113.846H375.814V127.041H374.438V113.846Z" fill="white"/>
<path d="M120.636 120.915C120.636 122.736 119.159 124.213 117.337 124.213C115.516 124.213 114.039 122.736 114.039 120.915C114.039 119.093 115.516 117.616 117.337 117.616C119.159 117.616 120.636 119.093 120.636 120.915Z" fill="white"/>
<path d="M425.882 122.966V128.407H404.84V124.079L415.58 113.567C416.72 112.44 417.489 111.479 417.887 110.682C418.284 109.857 418.483 109.046 418.483 108.249C418.483 107.095 418.099 106.216 417.33 105.611C416.587 104.979 415.487 104.663 414.028 104.663C412.809 104.663 411.708 104.91 410.727 105.405C409.746 105.872 408.924 106.587 408.261 107.549L403.567 104.416C404.655 102.739 406.153 101.434 408.062 100.5C409.971 99.5378 412.159 99.0569 414.625 99.0569C416.693 99.0569 418.497 99.4141 420.035 100.129C421.599 100.816 422.806 101.805 423.654 103.097C424.529 104.361 424.967 105.859 424.967 107.59C424.967 109.156 424.649 110.627 424.012 112.001C423.376 113.375 422.143 114.941 420.313 116.7L413.909 122.966H425.882Z" fill="white"/>
<path d="M451.262 122.348H446.727V128.407H440.443V122.348H425.447V117.854L438.573 99.5515H445.335L433.164 116.906H440.642V111.506H446.727V116.906H451.262V122.348Z" fill="white"/>
<path d="M0 13.2522H46.5888V32.8055H21.8385V44.5595H45.1329V64.1128H21.8385V89.0487H0V13.2522Z" fill="white"/>
<path d="M63.2641 31.0479C59.77 31.0479 56.9552 29.986 54.8199 27.8623C52.6846 25.7385 51.6169 22.8824 51.6169 19.294C51.6169 15.7056 52.6846 12.8495 54.8199 10.7257C56.9552 8.60192 59.77 7.54004 63.2641 7.54004C66.823 7.54004 69.6377 8.60192 71.7083 10.7257C73.8436 12.8495 74.9113 15.7056 74.9113 19.294C74.9113 22.8824 73.8436 25.7385 71.7083 27.8623C69.6377 29.986 66.823 31.0479 63.2641 31.0479ZM52.3934 33.0252H74.2319V89.0487H52.3934V33.0252Z" fill="white"/>
<path d="M123.896 71.4727C123.896 77.2581 121.729 81.9451 117.393 85.5335C113.511 88.829 108.173 90.4767 101.378 90.4767C92.19 90.4767 84.5546 87.877 78.4722 82.6774L85.8487 68.1772C87.7252 69.6419 90.0223 70.8868 92.74 71.9121C96.6871 73.3768 99.7607 74.1091 101.961 74.1091C103.837 74.1091 104.775 73.5232 104.775 72.3515C104.775 71.4727 103.967 70.777 102.349 70.2644L100.311 69.3856C98.3695 68.58 97.1077 68.1772 96.5253 68.1772C93.6782 67.2252 91.737 66.4928 90.7017 65.9802C84.5546 63.5635 81.481 58.4372 81.481 50.6012C81.481 44.889 83.4222 40.3486 87.3046 36.9798C91.3165 33.5379 96.3312 31.8169 102.349 31.8169C110.373 31.8169 117.361 33.9773 123.314 38.298L117.393 52.1391C112.411 48.6239 107.655 46.8663 103.125 46.8663C101.314 46.8663 100.408 47.4888 100.408 48.7338C100.408 49.6126 102.187 50.6012 105.746 51.6997C109.305 52.8714 111.634 53.7136 112.734 54.2263C115.84 55.6909 118.202 57.3387 119.82 59.1695C122.537 62.2453 123.896 66.3464 123.896 71.4727Z" fill="white"/>
<path d="M183.326 56.0937V89.0487H161.488V61.5862C161.488 58.1442 161.132 55.6909 160.42 54.2263C159.773 52.6884 158.447 51.9194 156.441 51.9194C154.435 51.9194 153.076 52.6884 152.364 54.2263C151.653 55.6909 151.297 58.1442 151.297 61.5862V89.0487H129.458V13.2522H151.297V29.7297L151.103 40.1655C154.144 34.673 158.738 31.9267 164.885 31.9267C171.42 31.9267 176.112 33.9773 178.959 38.0783C181.871 42.1062 183.326 48.1113 183.326 56.0937Z" fill="white"/>
<path d="M241.842 61.037L248.151 80.81C242.522 87.1813 234.595 90.3669 224.371 90.3669C213.954 90.3669 205.38 86.9249 198.651 80.041C191.856 73.1571 188.459 63.5635 188.459 51.2603C188.459 39.1036 191.856 29.5466 198.651 22.5895C205.509 15.6323 214.083 12.1537 224.371 12.1537C230.195 12.1537 234.983 12.9959 238.736 14.6803C241.583 15.7788 243.978 17.0604 245.919 18.525L246.695 19.294L240.872 40.1655C240.742 40.019 240.548 39.8725 240.289 39.7261C240.095 39.5064 239.836 39.2867 239.513 39.067C239.189 38.774 238.93 38.5177 238.736 38.298C238.089 37.7122 236.31 36.7601 233.398 35.4419C230.68 34.197 228.157 33.5745 225.827 33.5745C221.298 33.5745 217.61 35.1124 214.763 38.1882C211.915 41.1907 210.492 45.4383 210.492 50.9308C210.492 56.2768 211.915 60.4511 214.763 63.4537C217.674 66.4562 221.363 67.9575 225.827 67.9575C232.427 67.9575 237.766 65.6507 241.842 61.037Z" fill="white"/>
<path d="M290.447 32.8055L290.835 33.0252L289.864 55.5445H288.894C286.952 54.446 284.849 53.8967 282.585 53.8967C279.608 53.8967 277.343 55.1051 275.79 57.5218C274.496 59.4258 273.849 62.6115 273.849 67.0787V89.0487H252.011V33.0252H273.849L273.558 40.1655C276.47 34.673 280.611 31.9267 285.982 31.9267C288.052 31.9267 289.541 32.2197 290.447 32.8055Z" fill="white"/>
<path d="M342.849 58.2907V89.0487H322.175L321.69 84.1054C318.002 88.2797 313.796 90.3669 309.072 90.3669C303.766 90.3669 299.301 88.9022 295.678 85.9729C291.99 83.0436 290.146 78.3932 290.146 72.022C290.146 69.3856 290.598 67.0421 291.504 64.9916C292.41 62.941 293.543 61.3299 294.901 60.1582C296.26 58.9132 297.846 57.8879 299.657 57.0824C301.469 56.2768 303.152 55.7275 304.704 55.4346C306.322 55.0684 307.94 54.8487 309.557 54.7755L321.011 54.2263V53.677C321.011 50.1618 318.325 48.4042 312.955 48.4042C307.713 48.4042 302.537 50.052 297.425 53.3475L292.087 37.7488C299.657 33.8674 307.584 31.9267 315.866 31.9267C325.119 31.9267 331.914 34.1237 336.249 38.5177C340.649 42.9117 342.849 49.5027 342.849 58.2907ZM321.205 73.1205V66.1999L316.837 66.5295C313.602 66.6759 311.984 68.1406 311.984 70.9235C311.984 73.8528 313.602 75.3175 316.837 75.3175C318.455 75.3175 319.911 74.5851 321.205 73.1205Z" fill="white"/>
<path d="M386.22 90.3669C379.231 90.3669 374.055 87.9136 370.69 83.007L370.981 89.0487H350.307V13.2522H372.146V29.1805L371.952 37.9685C372.146 37.6755 372.599 37.1263 373.311 36.3207C374.022 35.6616 375.575 34.7828 377.97 33.6843C380.299 32.5126 383.049 31.9267 386.22 31.9267C393.143 31.9267 398.676 34.7096 402.817 40.2753C406.958 45.6946 409.029 52.6517 409.029 61.1468C409.029 69.5686 406.958 76.5624 402.817 82.1282C398.611 87.6206 393.079 90.3669 386.22 90.3669ZM371.467 60.8173C371.467 63.7466 372.178 66.0901 373.602 67.8477C375.09 69.532 376.967 70.3742 379.231 70.3742C381.367 70.3742 383.178 69.532 384.667 67.8477C386.22 66.1633 386.996 63.8198 386.996 60.8173C386.996 57.8147 386.252 55.4712 384.764 53.7869C383.664 52.4687 382.305 51.6631 380.687 51.3702C379.134 51.0772 377.646 51.2237 376.222 51.8096C374.864 52.3954 373.699 53.4939 372.728 55.1051C371.758 56.7162 371.337 58.6203 371.467 60.8173Z" fill="white"/>
<path d="M545.626 18.8493C547.448 18.8493 548.925 17.3724 548.925 15.5506C548.925 13.7289 547.448 12.252 545.626 12.252C543.804 12.252 542.327 13.7289 542.327 15.5506C542.327 17.3724 543.804 18.8493 545.626 18.8493Z" fill="white"/>
<path fill-rule="evenodd" clip-rule="evenodd" d="M426.876 68.3285C448.741 78.8841 465.831 63.9304 471.643 55.1341H457.977C462.689 50.4217 473.999 39.1122 481.539 19.7917C486.816 22.4306 494.576 23.7186 499.445 24.0328C504.315 24.3469 510.005 22.8809 515.467 18.8493C535.259 4.24108 555.522 0 568.245 0C568.053 0.384396 567.851 0.774671 567.641 1.18002C565.794 4.74999 563.341 9.489 561.648 21.6766C562.976 20.7283 564.475 19.6654 566.066 18.5379C572.379 14.0632 580.127 8.57095 584.267 5.18354C581.44 11.4666 572.958 26.7659 561.648 37.6985C547.323 42.9763 534.631 38.0127 530.075 34.8711C509.813 58.6891 452.852 96.614 426.876 68.3285ZM551.752 15.5506C551.752 18.9339 549.009 21.6766 545.626 21.6766C542.243 21.6766 539.5 18.9339 539.5 15.5506C539.5 12.1673 542.243 9.42462 545.626 9.42462C549.009 9.42462 551.752 12.1673 551.752 15.5506Z" fill="white"/>
<path d="M427.818 31.5725C427.818 26.6717 425.619 11.9379 424.52 5.18354C434.848 32.414 446.581 33.9179 464.842 36.2587L465.046 36.2848C449.846 40.3771 432.745 49.9933 425.462 64.5587C421.312 57.9191 423.74 51.2794 425.345 46.8925C425.562 46.298 425.765 45.7444 425.933 45.2382C427.347 40.9971 427.818 37.6985 427.818 31.5725Z" fill="white"/>
<path d="M449.966 80.5805C473.305 82.2878 505.571 64.0875 531.489 39.5834C541.385 44.767 552.223 45.2382 560.706 42.4108C553.794 52.3067 532.868 74.2448 505.1 86.2353C484.366 95.1887 456.563 86.3924 449.966 80.5805Z" fill="white"/>
<path d="M542.327 68.3285C532.526 77.3762 518.138 85.2929 512.169 88.1202C521.593 87.3663 531.803 89.3769 535.73 90.4764C537.144 87.9632 540.443 80.0151 542.327 68.3285Z" fill="white"/>
</svg>
